<?xml version="1.0" encoding="UTF-8"?>
<svg width="83px" height="83px" viewBox="0 0 83 83" version="1.1" xmlns="http://www.w3.org/2000/svg" xmlns:xlink="http://www.w3.org/1999/xlink">
    <!-- Generator: Sketch 45.1 (43504) - http://www.bohemiancoding.com/sketch -->
    <title>api</title>
    <desc>Created with Sketch.</desc>
    <defs></defs>
    <g id="Page-1" stroke="none" stroke-width="1" fill="none" fill-rule="evenodd">
        <g id="Desktop" transform="translate(-667.000000, -545.000000)">
            <rect id="Rectangle-3" fill="#000000" x="667" y="545" width="83" height="83"></rect>
            <path d="M695.808956,595.867883 C695.293095,594.920279 695,593.83389 695,592.679046 C695,590.871442 695.718072,589.231552 696.884523,588.029071 L685.616481,572.784073 C684.940267,573.237701 684.126619,573.502329 683.251165,573.502329 C680.903311,573.502329 679,571.599018 679,569.251165 C679,566.903311 680.903311,565 683.251165,565 C685.599018,565 687.502329,566.903311 687.502329,569.251165 C687.502329,570.543942 686.925276,571.701942 686.014697,572.481638 L697.248787,587.680701 C698.427717,586.63499 699.979227,586 701.679046,586 C701.74179,586 701.804332,586.000865 701.86666,586.002584 L705.119558,572.990991 C703.331329,572.570928 702,570.965487 702,569.049097 C702,566.812842 703.812842,565 706.049097,565 C708.285351,565 710.098193,566.812842 710.098193,569.049097 C710.098193,571.285351 708.285351,573.098193 706.049097,573.098193 C705.902077,573.098193 705.756888,573.090358 705.613924,573.075082 L702.37377,586.035695 C703.70713,586.173496 704.92408,586.70355 705.907258,587.508498 L725.660631,570.479728 C724.999932,569.688682 724.602335,568.670278 724.602335,567.559009 C724.602335,565.041138 726.643473,563 729.161345,563 C731.679216,563 733.720354,565.041138 733.720354,567.559009 C733.720354,570.076881 731.679216,572.118019 729.161345,572.118019 C727.934765,572.118019 726.821321,571.633627 726.001871,570.845701 L706.285439,587.842625 C707.173192,588.688412 707.828381,589.776114 708.145276,591 L730.182123,591 C730.71921,589.205367 732.383093,587.897399 734.352468,587.897399 C736.75627,587.897399 738.704937,589.846065 738.704937,592.249867 C738.704937,594.653669 736.75627,596.602335 734.352468,596.602335 C731.948666,596.602335 730,594.653669 730,592.249867 C730,591.994162 730.022051,591.743607 730.064354,591.5 L708.254353,591.5 C708.322521,591.882725 708.358092,592.276732 708.358092,592.679046 C708.358092,594.204512 707.846686,595.610532 706.985967,596.735013 L716.629779,603.485681 C717.466267,602.551799 718.681423,601.96415 720.033832,601.96415 C722.556947,601.96415 724.602335,604.009539 724.602335,606.532653 C724.602335,609.055768 722.556947,611.101156 720.033832,611.101156 C717.510718,611.101156 715.465329,609.055768 715.465329,606.532653 C715.465329,605.542035 715.780622,604.625057 716.316332,603.876596 L706.666412,597.121652 C705.443161,598.493928 703.662021,599.358092 701.679046,599.358092 C699.325463,599.358092 697.25621,598.140728 696.066606,596.301318 L689.831701,601.200173 C690.299721,601.768541 690.580776,602.496643 690.580776,603.290388 C690.580776,605.107619 689.107619,606.580776 687.290388,606.580776 C685.473157,606.580776 684,605.107619 684,603.290388 C684,601.473157 685.473157,600 687.290388,600 C688.133022,600 688.901676,600.316743 689.483785,600.83766 L695.808956,595.867883 Z" id="Combined-Shape" stroke="#FFFFFF" stroke-width="0.5"></path>
        </g>
    </g>
</svg>