<?xml version="1.0" encoding="UTF-8"?>
<svg width="83px" height="83px" viewBox="0 0 83 83" version="1.1" xmlns="http://www.w3.org/2000/svg" xmlns:xlink="http://www.w3.org/1999/xlink">
    <!-- Generator: Sketch 45.1 (43504) - http://www.bohemiancoding.com/sketch -->
    <title>app</title>
    <desc>Created with Sketch.</desc>
    <defs>
        <path d="M613.252239,693.654747 C613.196847,693.256095 613.168215,692.848883 613.168215,692.434983 C613.168215,691.850677 613.225277,691.279697 613.334133,690.727314 L615.796484,690.727314 C615.959708,690.137808 616.205365,689.582555 616.520267,689.074744 L614.791845,687.346322 C615.361507,686.546371 616.061902,685.845976 616.861853,685.276314 L618.590275,687.004736 C619.098086,686.689834 619.653339,686.444177 620.242845,686.280953 L620.242845,683.818602 C620.795228,683.709746 621.366207,683.652684 621.950514,683.652684 C622.364414,683.652684 622.771626,683.681316 623.170278,683.736708 L623.170278,686.166414 C623.821706,686.292429 624.437827,686.517464 625.002354,686.825231 L626.749184,685.0784 C627.572935,685.616826 628.30072,686.289872 628.901301,687.066299 L627.186963,688.780637 C627.595813,689.365403 627.909208,690.02183 628.104545,690.727314 L630.566896,690.727314 C630.675752,691.279697 630.732814,691.850677 630.732814,692.434983 C630.732814,692.848883 630.704182,693.256095 630.64879,693.654747 L628.219084,693.654747 C628.069719,694.426884 627.781236,695.149418 627.380762,695.795223 L629.109184,697.523645 C628.539522,698.323596 627.839127,699.023991 627.039176,699.593653 L625.310754,697.865231 C624.664949,698.265705 623.942415,698.554188 623.170278,698.703553 L623.170278,701.133259 C622.771626,701.188651 622.364414,701.217283 621.950514,701.217283 C621.366207,701.217283 620.795228,701.160221 620.242845,701.051365 L620.242845,698.589014 C619.537361,698.393678 618.880934,698.080282 618.296168,697.671432 L616.58183,699.38577 C615.805403,698.785189 615.132357,698.057404 614.593931,697.233653 L616.340762,695.486823 C616.032995,694.922296 615.80796,694.306175 615.681945,693.654747 L613.252239,693.654747 Z M621.950514,694.578183 C623.134171,694.578183 624.093714,693.61864 624.093714,692.434983 C624.093714,691.251327 623.134171,690.291784 621.950514,690.291784 C620.766858,690.291784 619.807315,691.251327 619.807315,692.434983 C619.807315,693.61864 620.766858,694.578183 621.950514,694.578183 Z" id="path-1"></path>
    </defs>
    <g id="Page-1" stroke="none" stroke-width="1" fill="none" fill-rule="evenodd">
        <g id="Desktop" transform="translate(-568.000000, -645.000000)">
            <rect id="Rectangle-3" fill="#000000" x="568" y="645" width="83" height="83"></rect>
            <rect id="Rectangle-7" stroke="#FFFFFF" stroke-width="0.5" x="598.25" y="663.25" width="23.5" height="44.5" rx="5"></rect>
            <rect id="Rectangle-7" stroke="#FFFFFF" stroke-width="0.5" x="600.786281" y="668.005527" width="18.4274374" height="32.4515573"></rect>
            <circle id="Oval-5" stroke="#FFFFFF" stroke-width="0.5" cx="610" cy="704" r="2"></circle>
            <g id="Combined-Shape" transform="translate(621.950514, 692.434983) rotate(-360.000000) translate(-621.950514, -692.434983) ">
                <use fill="#FFFFFF" fill-rule="evenodd" xlink:href="#path-1"></use>
                <path stroke="#000000" stroke-width="2" d="M612.511967,689.727314 L615.796484,689.727314 L615.796484,690.727314 L614.832744,690.46047 C614.901712,690.211382 614.983634,689.966705 615.078016,689.727314 C615.141295,689.566811 615.210175,689.408684 615.284507,689.253197 C615.400135,689.011325 615.528956,688.77584 615.670408,688.547733 L616.520267,689.074744 L615.81316,689.781851 L613.4866,687.455291 L613.977278,686.766253 C614.61151,685.875629 615.39116,685.095979 616.281784,684.461747 L616.970822,683.971069 L619.297382,686.297629 L618.590275,687.004736 L618.063264,686.154877 C618.291371,686.013425 618.526856,685.884604 618.768728,685.768976 C618.924215,685.694644 619.082342,685.625764 619.242845,685.562485 C619.482236,685.468103 619.726913,685.386181 619.976001,685.317213 L620.242845,686.280953 L619.242845,686.280953 L619.242845,682.996436 L620.049497,682.837472 C620.671468,682.714902 621.307283,682.652684 621.950514,682.652684 C622.407341,682.652684 622.860558,682.684066 623.307905,682.746224 L624.170278,682.866049 L624.170278,685.389744 C624.382166,685.456446 624.590674,685.532665 624.795249,685.618122 L626.616417,683.796953 L627.296305,684.241347 C628.212291,684.84006 629.022774,685.588922 629.692283,686.45446 L630.230958,687.150856 L628.452012,688.929802 C628.591362,689.187802 628.715286,689.454074 628.823012,689.727314 L631.389062,689.727314 L631.548026,690.533966 C631.670596,691.155937 631.732814,691.791752 631.732814,692.434983 C631.732814,692.89181 631.701432,693.345028 631.639274,693.792374 L631.519448,694.654747 L628.995753,694.654747 C628.891972,694.984421 628.765194,695.305795 628.616527,695.616774 L630.414429,697.414676 L629.92375,698.103714 C629.289519,698.994338 628.509869,699.773988 627.619245,700.40822 L626.930207,700.898898 L625.132305,699.100996 C624.821326,699.249663 624.499952,699.376441 624.170278,699.480222 L624.170278,702.003918 L623.307905,702.123743 C622.860558,702.185901 622.407341,702.217283 621.950514,702.217283 C621.307283,702.217283 620.671468,702.155065 620.049497,702.032495 L619.242845,701.873531 L619.242845,699.307481 C618.969605,699.199755 618.703333,699.075831 618.445333,698.936481 L616.666386,700.715427 L615.969991,700.176752 C615.104453,699.507243 614.355591,698.69676 613.756877,697.780774 L613.312484,697.100886 L615.133653,695.279718 C615.048196,695.075143 614.971977,694.866635 614.905275,694.654747 L612.38158,694.654747 L612.261755,693.792374 C612.199597,693.345028 612.168215,692.89181 612.168215,692.434983 C612.168215,691.791752 612.230433,691.155937 612.353003,690.533966 L612.511967,689.727314 Z M621.950514,693.578183 C622.581886,693.578183 623.093714,693.066355 623.093714,692.434983 C623.093714,691.803612 622.581886,691.291784 621.950514,691.291784 C621.319143,691.291784 620.807315,691.803612 620.807315,692.434983 C620.807315,693.066355 621.319143,693.578183 621.950514,693.578183 Z"></path>
            </g>
            <path d="M608.493754,665.75 L612.5,665.75" id="Line-4-Copy" stroke="#FFFFFF" stroke-width="0.5" stroke-linecap="round"></path>
        </g>
    </g>
</svg>