<?xml version="1.0" encoding="UTF-8"?>
<svg width="83px" height="83px" viewBox="0 0 83 83" version="1.1" xmlns="http://www.w3.org/2000/svg" xmlns:xlink="http://www.w3.org/1999/xlink">
    <!-- Generator: Sketch 45.1 (43504) - http://www.bohemiancoding.com/sketch -->
    <title>back-end</title>
    <desc>Created with Sketch.</desc>
    <defs></defs>
    <g id="Page-1" stroke="none" stroke-width="1" fill="none" fill-rule="evenodd">
        <g id="Desktop" transform="translate(-568.000000, -545.000000)">
            <rect id="Rectangle-3" fill="#000000" x="568" y="545" width="83" height="83"></rect>
            <path d="M631.840739,613.946053 L631.991422,614.096736 L631.669628,614.069871 C631.72699,614.029022 631.784029,613.987748 631.840739,613.946053 Z M609.854557,604.469412 L613.750189,604.469412 L613.789365,604.671931 C613.984767,605.682046 614.334223,606.65001 614.823275,607.547062 L614.912793,607.711263 L612.115024,610.509032 C612.904519,611.679267 613.868741,612.724139 614.971686,613.605436 L617.720949,610.856173 L617.892749,610.97629 C618.820897,611.625221 619.852685,612.113141 620.947888,612.416385 L621.131177,612.467135 L621.131177,616.411484 C621.949224,616.560105 622.783891,616.635498 623.628358,616.635498 C624.204259,616.635498 624.775721,616.600434 625.34063,616.530941 L625.34063,612.635309 L625.543149,612.596133 C626.73876,612.364848 627.874515,611.917845 628.902327,611.280483 L629.070736,611.17605 L631.840739,613.946053 C632.977181,613.110503 633.981721,612.105962 634.817271,610.96952 L632.047269,608.199517 L632.151701,608.031109 C632.789064,607.003296 633.236067,605.867541 633.467351,604.671931 L633.506528,604.469412 L637.402159,604.469412 C637.471653,603.904502 637.506716,603.33304 637.506716,602.75714 C637.506716,601.912673 637.431323,601.078006 637.282703,600.259959 L633.338353,600.259959 L633.287604,600.07667 C632.98436,598.981466 632.49644,597.949679 631.847508,597.02153 L631.727391,596.84973 L634.476654,594.100467 C633.595358,592.997523 632.550485,592.0333 631.380251,591.243806 L628.582482,594.041575 L628.41828,593.952056 C627.521228,593.463004 626.553265,593.113548 625.543149,592.918147 L625.34063,592.87897 L625.34063,588.983338 C624.775721,588.913845 624.204259,588.878781 623.628358,588.878781 C622.783891,588.878781 621.949224,588.954174 621.131177,589.102795 L621.131177,593.047145 L620.947888,593.097894 C620.031721,593.351566 619.159404,593.734594 618.354389,594.233797 L618.185981,594.338229 L615.415978,591.568227 C614.279536,592.403777 613.274995,593.408317 612.439445,594.544759 L615.209448,597.314762 L615.105015,597.483171 C614.605813,598.288186 614.222785,599.160502 613.969113,600.07667 L613.918363,600.259959 L609.974014,600.259959 C609.825393,601.078006 609.75,601.912673 609.75,602.75714 C609.75,603.33304 609.785063,603.904502 609.854557,604.469412 Z M613.539799,599.759959 L613.728178,599.759959 L613.487243,599.943248 C613.504212,599.881962 613.521732,599.820864 613.539799,599.759959 Z M614.295991,607.620958 L614.426999,607.489951 L614.384276,607.786394 C614.354349,607.7315 614.32492,607.676353 614.295991,607.620959 Z M623.628358,606.454971 C621.586103,606.454971 619.930527,604.799395 619.930527,602.75714 C619.930527,600.714884 621.586103,599.059309 623.628358,599.059309 C625.670614,599.059309 627.326189,600.714884 627.326189,602.75714 C627.326189,604.799395 625.670614,606.454971 623.628358,606.454971 Z" id="Combined-Shape" stroke="#FFFFFF" stroke-width="0.5" transform="translate(623.628358, 602.757140) rotate(-9.000000) translate(-623.628358, -602.757140) "></path>
            <g id="Group-2" transform="translate(578.553153, 554.424372)" stroke="#FFFFFF" stroke-width="0.5">
                <path d="M34.6336765,38.9364136 L34.784029,39.0867661 L34.4622349,39.0599011 C34.5196134,39.0190407 34.5767614,38.9778774 34.6336764,38.9364136 Z M3.81370863,25.6545272 L9.26648976,25.6545272 L9.305666,25.8570463 C9.58084023,27.2795416 10.0729657,28.6426871 10.7616641,29.9059442 L10.8511827,30.0701454 L6.93395354,33.9873746 C8.06843597,35.6843081 9.46353219,37.1955449 11.0641659,38.4626365 L14.9121201,34.6146823 L15.0839198,34.7347991 C16.390931,35.6486194 17.8439268,36.3357238 19.386249,36.7627673 L19.5695381,36.813517 L19.5695381,42.3358829 C20.7453651,42.5547072 21.9458826,42.6657493 23.1607817,42.6657493 C23.9998139,42.6657493 24.8321695,42.612788 25.6545272,42.5078548 L25.6545272,37.0550737 L25.8570463,37.0158975 C27.5407636,36.6901912 29.1401964,36.0606967 30.587576,35.1631544 L30.7559845,35.0587216 L34.6336765,38.9364136 C36.2822422,37.7353986 37.7353986,36.2822422 38.9364136,34.6336764 L35.0587216,30.7559845 L35.1631544,30.587576 C36.0606967,29.1401964 36.6901912,27.5407636 37.0158975,25.8570463 L37.0550737,25.6545272 L37.2613472,25.6545272 L42.5078549,25.6545272 C42.612788,24.8321695 42.6657493,23.9998139 42.6657493,23.1607817 C42.6657493,21.9458826 42.5547072,20.7453651 42.3358829,19.5695381 L36.813517,19.5695381 L36.7627673,19.386249 C36.3357238,17.8439268 35.6486194,16.390931 34.7347991,15.0839198 L34.6146823,14.9121201 L38.4626365,11.0641659 C37.1955449,9.46353219 35.6843081,8.06843597 33.9873746,6.93395356 L30.0701454,10.8511827 L29.9059442,10.7616641 C28.6426871,10.0729657 27.2795416,9.58084023 25.8570463,9.305666 L25.6545272,9.26648976 L25.6545272,3.81370863 C24.8321695,3.7087755 23.9998139,3.65581421 23.1607817,3.65581421 C21.9458826,3.65581421 20.7453651,3.76685633 19.5695381,3.98568064 L19.5695381,9.50804649 L19.386249,9.55879621 C18.096051,9.91603067 16.8676179,10.4554275 15.7339875,11.1584091 L15.565579,11.2628418 L11.687887,7.38514992 C10.0393213,8.58616491 8.58616491,10.0393213 7.38514993,11.687887 L11.2628418,15.565579 L11.1584091,15.7339875 C10.4554275,16.8676179 9.91603067,18.096051 9.55879621,19.386249 L9.50804649,19.5695381 L3.98568059,19.5695381 C3.76685633,20.7453651 3.65581421,21.9458826 3.65581421,23.1607817 C3.65581421,23.9998139 3.7087755,24.8321695 3.81370865,25.6545272 Z M9.12897447,19.0695381 L9.31786125,19.0695381 L9.07692629,19.2528272 C9.09388039,19.1915952 9.11123061,19.1304978 9.12897508,19.069538 Z M23.1607817,28.2317093 C20.3601858,28.2317093 18.0898542,25.9613777 18.0898542,23.1607817 C18.0898542,20.3601858 20.3601858,18.0898542 23.1607817,18.0898542 C25.9613777,18.0898542 28.2317093,20.3601858 28.2317093,23.1607817 C28.2317093,25.9613777 25.9613777,28.2317093 23.1607817,28.2317093 Z" id="Combined-Shape" transform="translate(23.160782, 23.160782) rotate(-9.000000) translate(-23.160782, -23.160782) "></path>
            </g>
        </g>
    </g>
</svg>