<?xml version="1.0" encoding="UTF-8"?>
<svg width="280px" height="282px" viewBox="0 0 280 282" version="1.1" xmlns="http://www.w3.org/2000/svg" xmlns:xlink="http://www.w3.org/1999/xlink">
    <!-- Generator: Sketch 45.1 (43504) - http://www.bohemiancoding.com/sketch -->
    <title>background-dots</title>
    <desc>Created with Sketch.</desc>
    <defs></defs>
    <g id="Page-1" stroke="none" stroke-width="0.5" fill="none" fill-rule="evenodd" opacity="0.08">
        <g id="Desktop-Copy" transform="translate(-668.000000, -208.000000)">
            <g id="Group-2" transform="translate(676.000000, 217.000000)">
                <g id="Group" transform="translate(3.489915, 1.744957)" stroke="#FFFFFF">
                    <polygon id="Path-2" points="132.180518 0 71.5432507 14.395898 132.180518 39.6977794 192.817786 101.643765 199.797615 129.999321 192.817786 158.791117 132.180518 223.790778 71.5432507 249.09266 132.180518 263.052318 191.072828 249.09266 132.180518 224.663257 68.9258147 158.791117 63.2547034 131.526159 68.9258147 103.824961 131.526159 40.570258 191.072828 14.395898"></polygon>
                    <polyline id="Path-4" points="131.744279 263.052318 131.744279 248.65642 131.744279 224.227018 130.8718 199.361376 131.308039 158.791117 131.308039 131.308039 131.744279 103.824961 131.744279 63.6909427 131.308039 39.6977794 131.744279 14.395898 131.744279 0"></polyline>
                    <polyline id="Path-6" points="191.072828 14.8321373 198.052658 34.8991467 196.74394 67.1808574 223.790778 59.3285494 218.992146 103.388722 244.730266 102.952483 259.562404 102.952483 248.220181 131.308039 259.562404 158.791117 244.730266 160.099835 242.985309 199.361376 223.790778 203.723769 223.790778 222.9183 199.797615 227.280693 191.072828 248.220181 196.74394 195.871461 131.744279 224.227018 66.3083787 195.871461 72.4157294 248.220181 64.5634214 227.280693 66.3083787 197.180179 68.4895754 158.791117 42.7514547 158.791117 47.113848 203.723769 66.3083787 197.180179 17.013334 158.791117 42.3152154 159.663596 62.8184641 131.526159 39.26154 131.526159 43.187694 160.099835 13.9596587 131.308039 38.8253007 131.308039 68.4895754 104.261201 66.3083787 66.3083787 43.187694 104.261201 38.8253007 60.2010281 17.013334 104.261201 13.9596587 132.180518 43.187694 104.69744 39.26154 130.435561"></polyline>
                    <polygon id="Path-9" points="64.1271821 130.8718 130.435561 199.797615 102.952483 130.8718 130.435561 159.663596 158.791117 130.8718 131.744279 199.797615 199.361376 130.8718 157.918639 130.8718 131.308039 131.308039 102.516243 131.308039"></polygon>
                    <polyline id="Path-11" points="69.3620541 103.824961 131.744279 63.2547034 192.381546 102.080004 197.180179 66.3083787 219.428385 103.824961 248.65642 131.308039 244.294027 102.080004 244.294027 63.2547034"></polyline>
                    <polyline id="Path-15" points="194.126504 158.791117 220.300864 158.791117 245.166506 158.791117 222.9183 130.8718 200.670094 130.8718 219.646505 160.099835 223.354539 130.8718 247.783942 131.744279 192.381546 102.516243"></polyline>
                    <path d="M67.6170967,66.3083787 L133.052997,39.6977794" id="Path-17"></path>
                    <polygon id="Path-3" points="132.180518 14.8321373 71.9794901 14.8321373 38.8253007 37.952822 18.7582914 63.2547034 3.48991467 103.388722 0 130.435561 3.48991467 158.791117 18.7582914 198.925136 38.8253007 224.663257 71.9794901 248.65642 132.180518 248.65642 191.509068 248.65642 224.663257 222.9183 243.857788 198.925136 259.998643 158.791117 263.052318 130.435561 259.998643 103.388722 243.857788 63.2547034 224.663257 37.952822 191.509068 14.8321373"></polygon>
                    <polyline id="Path-5" points="72.4157294 14.395898 63.6909427 36.2078647 131.744279 40.1340187 198.052658 36.2078647 224.663257 38.8253007 223.354539 59.7647887 243.421548 63.6909427 218.992146 102.516243 192.817786 102.516243 131.744279 104.261201 68.0533361 104.261201 42.7514547 104.261201 16.5770947 104.261201 3.05367534 104.261201 39.26154 59.7647887 39.26154 37.952822 65.8721394 65.8721394 63.2547034 36.2078647 39.6977794 37.952822"></polyline>
                    <polyline id="Path-7" points="3.926154 104.69744 14.395898 131.308039 0 131.308039 17.013334 158.354878 3.926154 158.354878 47.113848 204.160008"></polyline>
                    <polyline id="Path-8" points="19.1945307 199.361376 47.113848 203.723769 39.6977794 224.663257 63.2547034 227.716932 47.113848 205.032487"></polyline>
                    <polyline id="Path-10" points="63.2547034 130.435561 131.744279 103.388722 199.797615 130.435561"></polyline>
                    <polyline id="Path-12" points="103.824961 131.744279 132.180518 104.261201 158.791117 131.744279"></polyline>
                    <polyline id="Path-14" points="197.180179 195.435222 219.864624 158.354878 242.985309 199.361376"></polyline>
                    <polyline id="Path-16" points="132.180518 39.26154 196.74394 66.7446181 224.663257 39.26154"></polyline>
                </g>
                <circle id="Oval" fill="#FFFFFF" cx="135.016074" cy="2.39931634" r="2.39931634"></circle>
                <circle id="Oval" fill="#FFFFFF" cx="135.016074" cy="16.7952143" r="2.39931634"></circle>
                <circle id="Oval" fill="#FFFFFF" cx="194.344623" cy="16.7952143" r="2.39931634"></circle>
                <circle id="Oval" fill="#FFFFFF" cx="75.2512851" cy="16.7952143" r="2.39931634"></circle>
                <circle id="Oval" fill="#FFFFFF" cx="135.016074" cy="41.6608564" r="2.39931634"></circle>
                <circle id="Oval" fill="#FFFFFF" cx="66.9627377" cy="38.1709417" r="2.39931634"></circle>
                <circle id="Oval" fill="#FFFFFF" cx="42.533335" cy="40.3521384" r="2.39931634"></circle>
                <circle id="Oval" fill="#FFFFFF" cx="201.324453" cy="37.298463" r="2.39931634"></circle>
                <circle id="Oval" fill="#FFFFFF" cx="227.498813" cy="41.224617" r="2.39931634"></circle>
                <circle id="Oval" fill="#FFFFFF" cx="135.016074" cy="106.224278" r="2.39931634"></circle>
                <circle id="Oval" fill="#FFFFFF" cx="72.1976097" cy="106.224278" r="2.39931634"></circle>
                <circle id="Oval" fill="#FFFFFF" cx="46.459489" cy="106.224278" r="2.39931634"></circle>
                <circle id="Oval" fill="#FFFFFF" cx="20.7213684" cy="106.224278" r="2.39931634"></circle>
                <circle id="Oval" fill="#FFFFFF" cx="6.32547034" cy="106.224278" r="2.39931634"></circle>
                <circle id="Oval" fill="#FFFFFF" cx="134.579834" cy="161.190434" r="2.39931634"></circle>
                <circle id="Oval" fill="#FFFFFF" cx="196.962059" cy="161.190434" r="2.39931634"></circle>
                <circle id="Oval" fill="#FFFFFF" cx="222.70018" cy="161.190434" r="2.39931634"></circle>
                <circle id="Oval" fill="#FFFFFF" cx="248.438301" cy="161.190434" r="2.39931634"></circle>
                <circle id="Oval" fill="#FFFFFF" cx="262.834199" cy="161.190434" r="2.39931634"></circle>
                <circle id="Oval" fill="#FFFFFF" cx="72.1976097" cy="161.190434" r="2.39931634"></circle>
                <circle id="Oval" fill="#FFFFFF" cx="46.459489" cy="161.190434" r="2.39931634"></circle>
                <circle id="Oval" fill="#FFFFFF" cx="6.32547034" cy="161.190434" r="2.39931634"></circle>
                <circle id="Oval" fill="#FFFFFF" cx="20.7213684" cy="161.190434" r="2.39931634"></circle>
                <circle id="Oval" fill="#FFFFFF" cx="135.016074" cy="225.753855" r="2.39931634"></circle>
                <circle id="Oval" fill="#FFFFFF" cx="203.06941" cy="228.807531" r="2.39931634"></circle>
                <circle id="Oval" fill="#FFFFFF" cx="227.498813" cy="225.753855" r="2.39931634"></circle>
                <circle id="Oval" fill="#FFFFFF" cx="66.5264984" cy="228.807531" r="2.39931634"></circle>
                <circle id="Oval" fill="#FFFFFF" cx="42.0970957" cy="226.626334" r="2.39931634"></circle>
                <circle id="Oval" fill="#FFFFFF" transform="translate(3.271795, 133.271116) rotate(-202.000000) translate(-3.271795, -133.271116) " cx="3.271795" cy="133.271116" r="2.39931634"></circle>
                <circle id="Oval" fill="#FFFFFF" transform="translate(265.887874, 133.271116) rotate(-202.000000) translate(-265.887874, -133.271116) " cx="265.887874" cy="133.271116" r="2.39931634"></circle>
                <circle id="Oval" fill="#FFFFFF" transform="translate(251.491976, 133.271116) rotate(-202.000000) translate(-251.491976, -133.271116) " cx="251.491976" cy="133.271116" r="2.39931634"></circle>
                <circle id="Oval" fill="#FFFFFF" transform="translate(226.626334, 133.271116) rotate(-202.000000) translate(-226.626334, -133.271116) " cx="226.626334" cy="133.271116" r="2.39931634"></circle>
                <circle id="Oval" fill="#FFFFFF" transform="translate(202.633171, 133.271116) rotate(-202.000000) translate(-202.633171, -133.271116) " cx="202.633171" cy="133.271116" r="2.39931634"></circle>
                <circle id="Oval" fill="#FFFFFF" transform="translate(162.062912, 133.271116) rotate(-202.000000) translate(-162.062912, -133.271116) " cx="162.062912" cy="133.271116" r="2.39931634"></circle>
                <circle id="Oval" fill="#FFFFFF" transform="translate(107.096756, 133.271116) rotate(-202.000000) translate(-107.096756, -133.271116) " cx="107.096756" cy="133.271116" r="2.39931634"></circle>
                <circle id="Oval" fill="#FFFFFF" transform="translate(66.526498, 133.271116) rotate(-202.000000) translate(-66.526498, -133.271116) " cx="66.5264984" cy="133.271116" r="2.39931634"></circle>
                <circle id="Oval" fill="#FFFFFF" transform="translate(42.533335, 133.271116) rotate(-202.000000) translate(-42.533335, -133.271116) " cx="42.533335" cy="133.271116" r="2.39931634"></circle>
                <circle id="Oval" fill="#FFFFFF" transform="translate(17.667693, 133.271116) rotate(-202.000000) translate(-17.667693, -133.271116) " cx="17.667693" cy="133.271116" r="2.39931634"></circle>
                <circle id="Oval" fill="#FFFFFF" transform="translate(248.002061, 104.479320) rotate(-202.000000) translate(-248.002061, -104.479320) " cx="248.002061" cy="104.47932" r="2.39931634"></circle>
                <circle id="Oval" fill="#FFFFFF" transform="translate(262.397959, 104.479320) rotate(-202.000000) translate(-262.397959, -104.479320) " cx="262.397959" cy="104.47932" r="2.39931634"></circle>
                <circle id="Oval" fill="#FFFFFF" transform="translate(222.263941, 104.479320) rotate(-202.000000) translate(-222.263941, -104.479320) " cx="222.263941" cy="104.47932" r="2.39931634"></circle>
                <circle id="Oval" fill="#FFFFFF" transform="translate(196.089581, 104.479320) rotate(-202.000000) translate(-196.089581, -104.479320) " cx="196.089581" cy="104.47932" r="2.39931634"></circle>
                <circle id="Oval" fill="#FFFFFF" transform="translate(135.016074, 264.579156) rotate(-202.000000) translate(-135.016074, -264.579156) " cx="135.016074" cy="264.579156" r="2.39931634"></circle>
                <circle id="Oval" fill="#FFFFFF" transform="translate(135.016074, 250.619497) rotate(-202.000000) translate(-135.016074, -250.619497) " cx="135.016074" cy="250.619497" r="2.39931634"></circle>
                <circle id="Oval" fill="#FFFFFF" transform="translate(75.251285, 250.619497) rotate(-202.000000) translate(-75.251285, -250.619497) " cx="75.2512851" cy="250.619497" r="2.39931634"></circle>
                <circle id="Oval" fill="#FFFFFF" transform="translate(193.908384, 250.619497) rotate(-202.000000) translate(-193.908384, -250.619497) " cx="193.908384" cy="250.619497" r="2.39931634"></circle>
                <circle id="Oval" fill="#FFFFFF" transform="translate(134.579834, 201.760692) rotate(-202.000000) translate(-134.579834, -201.760692) " cx="134.579834" cy="201.760692" r="2.39931634"></circle>
                <circle id="Oval" fill="#FFFFFF" transform="translate(69.580174, 199.143256) rotate(-202.000000) translate(-69.580174, -199.143256) " cx="69.5801737" cy="199.143256" r="2.39931634"></circle>
                <circle id="Oval" fill="#FFFFFF" transform="translate(200.015735, 198.270777) rotate(-202.000000) translate(-200.015735, -198.270777) " cx="200.015735" cy="198.270777" r="2.39931634"></circle>
                <circle id="Oval" fill="#FFFFFF" transform="translate(227.062573, 205.686846) rotate(-202.000000) translate(-227.062573, -205.686846) " cx="227.062573" cy="205.686846" r="2.39931634"></circle>
                <circle id="Oval" fill="#FFFFFF" transform="translate(246.693343, 201.760692) rotate(-202.000000) translate(-246.693343, -201.760692) " cx="246.693343" cy="201.760692" r="2.39931634"></circle>
                <circle id="Oval" fill="#FFFFFF" transform="translate(134.579834, 133.271116) rotate(-202.000000) translate(-134.579834, -133.271116) " cx="134.579834" cy="133.271116" r="2.39931634"></circle>
                <circle id="Oval" fill="#FFFFFF" transform="translate(135.016074, 65.654020) rotate(-202.000000) translate(-135.016074, -65.654020) " cx="135.016074" cy="65.6540197" r="2.39931634"></circle>
                <circle id="Oval" fill="#FFFFFF" transform="translate(135.016074, 65.654020) rotate(-202.000000) translate(-135.016074, -65.654020) " cx="135.016074" cy="65.6540197" r="2.39931634"></circle>
                <circle id="Oval" fill="#FFFFFF" transform="translate(200.015735, 68.707695) rotate(-202.000000) translate(-200.015735, -68.707695) " cx="200.015735" cy="68.7076951" r="2.39931634"></circle>
                <circle id="Oval" fill="#FFFFFF" transform="translate(227.062573, 61.727866) rotate(-202.000000) translate(-227.062573, -61.727866) " cx="227.062573" cy="61.7278657" r="2.39931634"></circle>
                <circle id="Oval" fill="#FFFFFF" transform="translate(246.693343, 65.654020) rotate(-202.000000) translate(-246.693343, -65.654020) " cx="246.693343" cy="65.6540197" r="2.39931634"></circle>
                <circle id="Oval" fill="#FFFFFF" transform="translate(69.580174, 67.835216) rotate(-202.000000) translate(-69.580174, -67.835216) " cx="69.5801737" cy="67.8352164" r="2.39931634"></circle>
                <circle id="Oval" fill="#FFFFFF" transform="translate(42.097096, 62.164105) rotate(-202.000000) translate(-42.097096, -62.164105) " cx="42.0970957" cy="62.1641051" r="2.39931634"></circle>
                <circle id="Oval" fill="#FFFFFF" transform="translate(22.030086, 65.654020) rotate(-202.000000) translate(-22.030086, -65.654020) " cx="22.0300864" cy="65.6540197" r="2.39931634"></circle>
                <circle id="Oval" fill="#FFFFFF" transform="translate(50.385643, 205.686846) rotate(-202.000000) translate(-50.385643, -205.686846) " cx="50.385643" cy="205.686846" r="2.39931634"></circle>
                <circle id="Oval" fill="#FFFFFF" transform="translate(22.466326, 201.760692) rotate(-202.000000) translate(-22.466326, -201.760692) " cx="22.4663257" cy="201.760692" r="2.39931634"></circle>
                <polygon id="Path-13" stroke="#979797" points="227.716932 204.596248 204.596248 227.716932 201.106333 197.180179"></polygon>
            </g>
        </g>
    </g>
</svg>
