<?xml version="1.0" encoding="UTF-8"?>
<svg width="83px" height="83px" viewBox="0 0 83 83" version="1.1" xmlns="http://www.w3.org/2000/svg" xmlns:xlink="http://www.w3.org/1999/xlink">
    <!-- Generator: Sketch 45.1 (43504) - http://www.bohemiancoding.com/sketch -->
    <title>design</title>
    <desc>Created with Sketch.</desc>
    <defs>
        <path d="M3.94389678,0.786220038 C5.84793533,0.786220038 7.31445961,2.46352645 7.21947044,4.53258877 L6.07284975,29.5083804 C5.97786058,31.5774427 4.83995905,31.9231373 3.94389678,31.9231373 C3.04783451,31.9231373 1.90993299,31.5774427 1.81494382,29.5083804 L0.668323124,4.53258877 C0.573333955,2.46352645 2.03985824,0.786220038 3.94389678,0.786220038 Z" id="path-1"></path>
    </defs>
    <g id="Page-1" stroke="none" stroke-width="1" fill="none" fill-rule="evenodd">
        <g id="Desktop" transform="translate(-667.000000, -645.000000)">
            <rect id="Rectangle-3" fill="#000000" x="667" y="645" width="83" height="83"></rect>
            <path d="M720.4264,713.382786 L716.074563,703.75 L734,703.75 C737.175637,703.75 739.75,701.175637 739.75,698 L739.75,667 C739.75,663.824363 737.175637,661.25 734,661.25 L683,661.25 C679.824363,661.25 677.25,663.824363 677.25,667 L677.25,698 C677.25,701.175637 679.824363,703.75 683,703.75 L702.764418,703.75 L698.308632,713.384797 C697.835517,714.407819 698.567456,715.222691 700.051382,715.222691 L718.661118,715.222691 C720.146043,715.222691 720.888558,714.405772 720.4264,713.382786 Z" id="Combined-Shape" stroke="#FFFFFF" stroke-width="0.5"></path>
            <rect id="Rectangle-4" stroke="#FFFFFF" stroke-width="0.5" x="683.069166" y="667.00393" width="50.8616677" height="30.665258"></rect>
            <g id="Group-4" transform="translate(721.013486, 669.410488) rotate(39.000000) translate(-721.013486, -669.410488) translate(717.013486, 647.910488)">
                <g id="Rectangle-8">
                    <use fill="#FFFFFF" fill-rule="evenodd" xlink:href="#path-1"></use>
                    <path stroke="#000000" stroke-width="3" d="M3.94389678,-0.713779962 C6.73479828,-0.713779962 8.85080079,1.70635357 8.71789219,4.60138024 L7.57127149,29.5771718 C7.45225505,32.1695982 5.96875514,33.4231373 3.94389678,33.4231373 C1.91903842,33.4231373 0.43553851,32.1695982 0.31652207,29.5771718 L-0.830098624,4.60138024 C-0.963007224,1.70635357 1.15299529,-0.713779962 3.94389678,-0.713779962 Z"></path>
                </g>
                <g id="Group-3" transform="translate(1.397632, 33.543170)" fill="#FFFFFF">
                    <circle id="Oval-7" cx="2.79526415" cy="2.79526415" r="2.79526415"></circle>
                    <path d="M0.377387958,4.19289623 C1.16833654,5.03968097 1.74135659,5.77095963 2.09644812,6.38673223 C2.45153964,7.00250482 2.68447832,7.66885824 2.79526415,8.38579246 C3.60938423,7.65664827 4.21501911,6.94772285 4.61216879,6.2590162 C5.26440847,4.88160289 5.59052831,3.72701887 5.59052831,2.79526415 L0.377387958,4.19289623 Z" id="Path-18"></path>
                </g>
            </g>
        </g>
    </g>
</svg>