<?xml version="1.0" encoding="UTF-8"?>
<svg width="149px" height="149px" viewBox="0 0 149 149" version="1.1" xmlns="http://www.w3.org/2000/svg" xmlns:xlink="http://www.w3.org/1999/xlink">
    <!-- Generator: Sketch 44.1 (41455) - http://www.bohemiancoding.com/sketch -->
    <title>Done</title>
    <desc>Created with Sketch.</desc>
    <defs></defs>
    <g id="Page-1" stroke="none" stroke-width="1" fill="none" fill-rule="evenodd">
        <g id="Desktop" transform="translate(-460.000000, -266.000000)">
            <rect id="Rectangle" fill="#000000" x="460" y="266" width="149" height="149"></rect>
            <path d="M562.731922,347.017302 C562.581841,347.054002 562.443734,347.128721 562.330899,347.234265 L560.49312,348.953289 L561.743999,348.973849 L542.174986,329.424628 C541.923668,329.173564 541.548183,329.093819 541.216519,329.22107 L532.406615,332.601206 C532.245515,332.679209 532.109148,332.745092 531.904282,332.833431 C531.552116,332.985288 531.144094,333.138219 530.686813,333.281502 C528.404447,333.996652 525.893764,334.19579 523.344962,333.567629 C521.574645,333.131328 520.090123,332.345079 518.864029,331.308435 C518.185767,330.734974 517.630107,330.121498 517.189863,329.510974 C516.932173,329.153613 516.774171,328.885445 516.708276,328.751037 L516.326301,329.939945 L541.965044,316.1577 C541.981843,316.15467 542.168879,316.081452 542.440668,315.985103 C542.901409,315.821771 543.425024,315.657822 544.000233,315.504559 C546.614159,314.808086 549.305171,314.571028 551.785817,315.057662 C553.995316,315.491105 555.894147,316.481542 557.417581,318.12412 C557.62889,318.351956 557.942783,318.454669 558.247902,318.39582 C558.769794,318.295162 558.769794,318.295162 560.857364,317.892529 C563.466825,317.389238 563.466825,317.389238 566.598178,316.785289 C569.729532,316.18134 569.729532,316.18134 572.338994,315.678049 C574.426563,315.275416 574.426563,315.275416 574.948455,315.174758 C575.436516,315.080625 575.755858,314.608663 575.661725,314.120602 C575.567592,313.63254 575.09563,313.313198 574.607569,313.407331 C574.085676,313.50799 574.085676,313.50799 571.998107,313.910622 C569.388646,314.413913 569.388646,314.413913 566.257292,315.017862 C563.125939,315.621812 563.125939,315.621812 560.516477,316.125102 C558.428908,316.527735 558.428908,316.527735 557.907016,316.628393 L558.737337,316.900093 C556.942254,314.964621 554.699949,313.795026 552.132322,313.291329 C549.343888,312.744315 546.392707,313.004292 543.536797,313.765241 C542.913239,313.931387 542.343873,314.109661 541.839243,314.288552 C541.531809,314.397537 541.310875,314.484023 541.187117,314.53658 L515.474035,328.354497 C515.047764,328.583642 514.87902,329.108861 515.092061,329.543406 C515.49197,330.35911 516.333343,331.525915 517.701869,332.682983 C519.133065,333.893038 520.864887,334.810266 522.914234,335.315334 C525.816093,336.030507 528.651164,335.80564 531.225018,334.999156 C532.117831,334.719404 532.775822,334.435674 533.151154,334.236335 L541.861304,330.901621 L540.902838,330.698064 L560.471851,350.247285 C560.815105,350.590192 561.368392,350.599286 561.72273,350.267845 L563.56051,348.548821 L563.159486,348.765784 L581.106138,344.37721 C581.588968,344.259141 581.884665,343.772017 581.766597,343.289187 C581.648528,342.806357 581.161404,342.510659 580.678574,342.628728 L562.731922,347.017302 Z" id="Brooks_Element_21" fill="#FFFFFF" fill-rule="nonzero"></path>
            <path d="M509.640035,349.235537 C510.126197,349.339033 510.604209,349.028822 510.707705,348.54266 C510.811201,348.056498 510.500989,347.578485 510.014827,347.474989 L489.087581,343.019911 C488.601419,342.916415 488.123407,343.226627 488.019911,343.712789 C487.916415,344.198951 488.226627,344.676963 488.712789,344.780459 L509.640035,349.235537 Z" id="Brooks_Element_20" fill="#FFFFFF" fill-rule="nonzero"></path>
            <path d="M519.833925,318.158871 L520.081978,318.174982 L495.081978,313.018732 C494.595168,312.918327 494.119136,313.231571 494.018732,313.718381 C493.918327,314.205191 494.231571,314.681222 494.718381,314.781627 L519.718381,319.937877 C519.799922,319.954694 519.883402,319.960116 519.966434,319.953987 L537.145144,318.685921 C537.640852,318.64933 538.013039,318.217816 537.976448,317.722109 C537.939857,317.226401 537.508343,316.854214 537.012636,316.890805 L519.833925,318.158871 Z" id="Brooks_Element_19" fill="#FFFFFF" fill-rule="nonzero"></path>
            <path d="M516.137473,347.693289 C517.332424,348.88824 517.330096,350.829117 516.130699,352.028514 L514.029722,354.129491 C512.831568,355.327646 510.887471,355.32924 509.694497,354.136265 C508.499546,352.941314 508.501874,351.000437 509.701271,349.80104 L511.802248,347.700063 C513.000402,346.501908 514.944499,346.500314 516.137473,347.693289 Z M508.428479,348.528247 C506.52682,350.429906 506.523126,353.510479 508.421705,355.409058 C510.318091,357.305444 513.401883,357.302915 515.302515,355.402283 L517.403491,353.301307 C519.30515,351.399648 519.308844,348.319075 517.410265,346.420497 C515.513879,344.524111 512.430087,344.526639 510.529455,346.427271 L508.428479,348.528247 Z" id="Brooks_Element_18" fill="#FFFFFF" fill-rule="nonzero"></path>
            <path d="M522.137473,353.693289 C523.332424,354.88824 523.330096,356.829117 522.130699,358.028514 L520.029722,360.129491 C518.831568,361.327646 516.887471,361.32924 515.694497,360.136265 C514.499546,358.941314 514.501874,357.000437 515.701271,355.80104 L517.802248,353.700063 C519.000402,352.501908 520.944499,352.500314 522.137473,353.693289 Z M514.428479,354.528247 C512.52682,356.429906 512.523126,359.510479 514.421705,361.409058 C516.318091,363.305444 519.401883,363.302915 521.302515,361.402283 L523.403491,359.301307 C525.30515,357.399648 525.308844,354.319075 523.410265,352.420497 C521.513879,350.524111 518.430087,350.526639 516.529455,352.427271 L514.428479,354.528247 Z" id="Brooks_Element_17" fill="#FFFFFF" fill-rule="nonzero"></path>
            <path d="M527.137473,359.693289 C528.332424,360.88824 528.330096,362.829117 527.130699,364.028514 L525.029722,366.129491 C523.831568,367.327646 521.887471,367.32924 520.694497,366.136265 C519.499546,364.941314 519.501874,363.000437 520.701271,361.80104 L522.802248,359.700063 C524.000402,358.501908 525.944499,358.500314 527.137473,359.693289 Z M519.428479,360.528247 C517.52682,362.429906 517.523126,365.510479 519.421705,367.409058 C521.318091,369.305444 524.401883,369.302915 526.302515,367.402283 L528.403491,365.301307 C530.30515,363.399648 530.308844,360.319075 528.410265,358.420497 C526.513879,356.524111 523.430087,356.526639 521.529455,358.427271 L519.428479,360.528247 Z" id="Brooks_Element_16" fill="#FFFFFF" fill-rule="nonzero"></path>
            <path d="M533.137473,364.693289 C534.332424,365.88824 534.330096,367.829117 533.130699,369.028514 L531.029722,371.129491 C529.831568,372.327646 527.887471,372.32924 526.694497,371.136265 C525.499546,369.941314 525.501874,368.000437 526.701271,366.80104 L528.802248,364.700063 C530.000402,363.501908 531.944499,363.500314 533.137473,364.693289 Z M525.428479,365.528247 C523.52682,367.429906 523.523126,370.510479 525.421705,372.409058 C527.318091,374.305444 530.401883,374.302915 532.302515,372.402283 L534.403491,370.301307 C536.30515,368.399648 536.308844,365.319075 534.410265,363.420497 C532.513879,361.524111 529.430087,361.526639 527.529455,363.427271 L525.428479,365.528247 Z" id="Brooks_Element_15" fill="#FFFFFF" fill-rule="nonzero"></path>
            <path d="M540.757852,368.795971 C539.562901,369.990922 537.622023,369.988594 536.422626,368.789197 L535.536396,367.902967 C535.184924,367.551495 534.615076,367.551495 534.263604,367.902967 C533.912132,368.254438 533.912132,368.824287 534.263604,369.175759 L535.149834,370.061989 C537.051492,371.963647 540.132065,371.967342 542.030644,370.068763 C543.898426,368.200981 544.298381,365.634348 542.958504,363.432305 C542.700131,363.007678 542.14645,362.872902 541.721822,363.131275 C541.297195,363.389648 541.162419,363.943329 541.420792,364.367956 C542.314939,365.837458 542.056245,367.497577 540.757852,368.795971 Z" id="Brooks_Element_14" fill="#FFFFFF" fill-rule="nonzero"></path>
            <path d="M547.972598,363.818314 C546.777647,365.013265 544.83677,365.010937 543.637373,363.81154 L541.536396,361.710563 C541.184924,361.359091 540.615076,361.359091 540.263604,361.710563 C539.912132,362.062035 539.912132,362.631884 540.263604,362.983356 L542.36458,365.084332 C544.266239,366.985991 547.346812,366.989685 549.24539,365.091106 C551.135463,363.201034 551.092641,360.170936 549.185309,358.263604 C548.833837,357.912132 548.263988,357.912132 547.912516,358.263604 C547.561045,358.615076 547.561045,359.184924 547.912516,359.536396 C549.124831,360.74871 549.15155,362.639362 547.972598,363.818314 Z" id="Brooks_Element_13" fill="#FFFFFF" fill-rule="nonzero"></path>
            <path d="M553.965824,354.637373 C555.163979,355.835527 555.165573,357.779624 553.972598,358.972598 C552.777647,360.167549 550.83677,360.165221 549.637373,358.965824 L547.536396,356.864847 C547.184924,356.513375 546.615076,356.513375 546.263604,356.864847 C545.912132,357.216319 545.912132,357.786168 546.263604,358.13764 L548.36458,360.238616 C550.266239,362.140275 553.346812,362.143969 555.24539,360.24539 C557.141776,358.349004 557.139248,355.265212 555.238616,353.36458 L553.13764,351.263604 C552.786168,350.912132 552.216319,350.912132 551.864847,351.263604 C551.513375,351.615076 551.513375,352.184924 551.864847,352.536396 L553.965824,354.637373 Z" id="Brooks_Element_12" fill="#FFFFFF" fill-rule="nonzero"></path>
            <path d="M559.780107,350.535821 C559.740835,351.028795 559.674441,351.520514 559.576079,351.97158 C559.422146,352.677489 559.20393,353.197764 558.972598,353.429096 C557.777647,354.624047 555.83677,354.621719 554.637373,353.422322 L552.536396,351.321345 C552.184924,350.969873 551.615076,350.969873 551.263604,351.321345 C550.912132,351.672817 550.912132,352.242666 551.263604,352.594137 L553.36458,354.695114 C555.266239,356.596773 558.346812,356.600467 560.24539,354.701888 C560.777966,354.169313 561.113669,353.368922 561.334751,352.355083 C561.452318,351.815942 561.529176,351.246726 561.574422,350.678763 C561.601553,350.338194 561.612299,350.070363 561.613983,349.909418 C561.619183,349.412389 561.220478,349.005251 560.723449,349.00005 C560.226419,348.99485 559.819282,349.393555 559.814081,349.890584 C559.812805,350.012556 559.803687,350.239828 559.780107,350.535821 Z" id="Brooks_Element_11" fill="#FFFFFF" fill-rule="nonzero"></path>
            <path d="M508.9,322 C503.432381,322 499,326.432381 499,331.9 C499,337.367619 503.432381,341.8 508.9,341.8 C514.367619,341.8 518.8,337.367619 518.8,331.9 L517,331.9 C517,336.373506 513.373506,340 508.9,340 C504.426494,340 500.8,336.373506 500.8,331.9 C500.8,327.426494 504.426494,323.8 508.9,323.8 C512.28085,323.8 515.269894,325.890448 516.463221,328.993628 L518.14328,328.347562 C516.684762,324.554765 513.03181,322 508.9,322 Z" id="Brooks_Element_10" fill="#FFFFFF" fill-rule="nonzero"></path>
            <polygon id="Brooks_Element_9" fill="#FFFFFF" fill-rule="nonzero" points="510.814447 318.679085 509.147461 318 507 323.271484 508.666986 323.95057"></polygon>
            <polygon id="Brooks_Element_8" fill="#FFFFFF" fill-rule="nonzero" points="520.578128 319.648291 518.898926 319 516 326.508789 517.679202 327.15708"></polygon>
            <polygon id="Brooks_Element_7" fill="#FFFFFF" fill-rule="nonzero" points="507 347.36377 508.687062 347.991321 511.05425 341.627551 509.367188 341"></polygon>
            <polygon id="Brooks_Element_6" fill="#FFFFFF" fill-rule="nonzero" points="497 346.035156 498.671132 346.703975 501.886952 338.668818 500.21582 338"></polygon>
            <path d="M508,331.697852 C508,332.310904 508.599556,332.744545 509.181786,332.552601 L513.358543,331.175648 C513.830609,331.020022 514.087133,330.511178 513.931507,330.039113 C513.775882,329.567048 513.267037,329.310523 512.794972,329.466149 L508.618214,330.843102 L509.8,331.697852 L509.8,325.9 C509.8,325.402944 509.397056,325 508.9,325 C508.402944,325 508,325.402944 508,325.9 L508,331.697852 Z" id="Brooks_Element_5" fill="#FFFFFF" fill-rule="nonzero"></path>
        </g>
    </g>
</svg>