<?xml version="1.0" encoding="UTF-8"?>
<svg width="149px" height="149px" viewBox="0 0 149 149" version="1.1" xmlns="http://www.w3.org/2000/svg" xmlns:xlink="http://www.w3.org/1999/xlink">
    <!-- Generator: Sketch 44.1 (41455) - http://www.bohemiancoding.com/sketch -->
    <title>Think</title>
    <desc>Created with Sketch.</desc>
    <defs></defs>
    <g id="Page-1" stroke="none" stroke-width="1" fill="none" fill-rule="evenodd">
        <g id="Desktop" transform="translate(-190.000000, -266.000000)">
            <rect id="Rectangle" fill="#000000" x="190" y="266" width="149" height="149"></rect>
            <path d="M274.727273,359.613571 L274.727273,369.840996 C274.727273,370.83255 273.920896,371.636364 272.932621,371.636364 L256.885561,371.636364 C255.894402,371.636364 255.090909,370.828424 255.090909,369.840996 L255.090909,359.613571 C247.351081,355.93678 242,348.047841 242,338.909091 C242,326.256749 252.256749,316 264.909091,316 C277.561432,316 287.818182,326.256749 287.818182,338.909091 C287.818182,348.047841 282.4671,355.93678 274.727273,359.613571 Z" id="Brooks_Element_74" stroke="#FFFFFF" stroke-width="1.8" stroke-linecap="round" stroke-linejoin="round"></path>
            <path d="M248,339.263636 C248,339.760693 248.402944,340.163636 248.9,340.163636 C249.397056,340.163636 249.8,339.760693 249.8,339.263636 C249.8,330.723306 256.723306,323.8 265.263636,323.8 C265.760693,323.8 266.163636,323.397056 266.163636,322.9 C266.163636,322.402944 265.760693,322 265.263636,322 C255.729193,322 248,329.729193 248,339.263636 Z" id="Brooks_Element_73" fill="#FFFFFF" fill-rule="nonzero"></path>
            <path d="M256.694652,372.8 L272.741712,372.8 C273.23705,372.8 273.636364,373.200905 273.636364,373.705901 L273.636364,376.639554 C273.636364,377.1399 273.232888,377.545455 272.741712,377.545455 L256.694652,377.545455 C256.199313,377.545455 255.8,377.144549 255.8,376.639554 L255.8,373.705901 C255.8,373.205555 256.203476,372.8 256.694652,372.8 Z M254,376.639554 C254,378.137062 255.203594,379.345455 256.694652,379.345455 L272.741712,379.345455 C274.229077,379.345455 275.436364,378.131948 275.436364,376.639554 L275.436364,373.705901 C275.436364,372.208392 274.23277,371 272.741712,371 L256.694652,371 C255.207286,371 254,372.213507 254,373.705901 L254,376.639554 Z" id="Brooks_Element_72" fill="#FFFFFF" fill-rule="nonzero"></path>
            <path d="M264.809091,385.709091 C268.017363,385.709091 270.618182,383.108272 270.618182,379.9 C270.618182,379.402944 270.215238,379 269.718182,379 C269.221126,379 268.818182,379.402944 268.818182,379.9 C268.818182,382.11416 267.023251,383.909091 264.809091,383.909091 C262.594931,383.909091 260.8,382.11416 260.8,379.9 C260.8,379.402944 260.397056,379 259.9,379 C259.402944,379 259,379.402944 259,379.9 C259,383.108272 261.600819,385.709091 264.809091,385.709091 Z" id="Brooks_Element_71" fill="#FFFFFF" fill-rule="nonzero"></path>
            <path d="M234.5,339 L222,339" id="Line" stroke="#FFFFFF" stroke-width="2" stroke-linecap="round"></path>
            <path d="M271,302.5 L258.5,302.5" id="Line" stroke="#FFFFFF" stroke-width="2" stroke-linecap="round" transform="translate(265.000000, 302.500000) rotate(-270.000000) translate(-265.000000, -302.500000) "></path>
            <path d="M307.5,339 L295,339" id="Line" stroke="#FFFFFF" stroke-width="2" stroke-linecap="round" transform="translate(301.500000, 339.000000) rotate(-180.000000) translate(-301.500000, -339.000000) "></path>
            <path d="M296.809398,313.190602 L284.309398,313.190602" id="Line" stroke="#FFFFFF" stroke-width="2" stroke-linecap="round" transform="translate(290.809398, 313.190602) rotate(-225.000000) translate(-290.809398, -313.190602) "></path>
            <path d="M245.190602,313.190602 L232.690602,313.190602" id="Line" stroke="#FFFFFF" stroke-width="2" stroke-linecap="round" transform="translate(239.190602, 313.190602) rotate(-315.000000) translate(-239.190602, -313.190602) "></path>
        </g>
    </g>
</svg>